<svg fill="#FFFFFF" id="Capa_1" enable-background="new 0 0 512.006 512.006" height="512" viewBox="0 0 512.006 512.006" width="512" xmlns="http://www.w3.org/2000/svg"><g><path d="m15.003 360.006h121c8.291 0 15-6.709 15-15v-165c0-10.977 3.179-21.14 8.346-30h-114.346c-24.814 0-45 20.186-45 45v150c0 8.291 6.709 15 15 15z"/><path d="m451.003 345.006c0-11.7-.901-13.2-21.899-52.5l-11.484-21.489 3.083-12.411c.901-4.501 0-9.3-2.999-12.9-2.701-3.6-7.2-5.7-11.7-5.7h-225v105c0 24.899-20.099 45-45 45h-69.7l24 110.3c1.5 6.899 7.8 11.7 14.7 11.7h241c6.899 0 12.9-4.801 14.7-11.4l27.301-110.6h-87.001c-17.701 0-33.6-10.501-41.1-26.4l-32.701-72.301c-3.3-7.798 0-16.5 7.5-20.099 7.8-3.3 16.501 0 20.101 7.5l32.399 72.599c2.401 5.101 7.8 8.701 13.801 8.691h94.501l11.353-45.675c.016.027.031.057.048.084 14.099 26.4 14.099 27.001 14.099 30.601 0 8.399-6.599 15-15 15h-10.499l-7.5 30 17.999-.01c24.899 0 44.998-20.091 44.998-44.99z"/><path d="m181.003 180.006v22.716l46.859-46.866c-4.867-3.408-10.464-5.85-16.859-5.85-16.569 0-30 13.431-30 30z"/><path d="m482.067 72.362 25.543-25.543c5.868-5.869 5.845-15.383 0-21.226l-21.232-21.204c-5.863-5.856-15.361-5.852-21.218.007l-25.529 25.529c.004.004.007.004.011.007l42.422 42.422c.001.002.001.006.003.008z"/><path d="m418.423 51.133-22.323 21.321c-17.803 17.803-39.798 31.448-63.655 39.483-17.834 6.008-34.105 15.851-47.41 29.16l-68.895 68.91h166.857c6.947-9.88 12.585-20.656 16.28-32.161 7.665-23.866 22.552-45.245 40.276-62.97l21.306-21.306c-.002-.002-.005-.002-.007-.004l-42.422-42.422c-.003-.004-.003-.008-.007-.011z"/></g></svg>